<?xml version="1.0" standalone="no"?>
<!DOCTYPE svg PUBLIC "-//W3C//DTD SVG 20010904//EN"
 "http://www.w3.org/TR/2001/REC-SVG-20010904/DTD/svg10.dtd">
<svg version="1.0" xmlns="http://www.w3.org/2000/svg"
 width="120.000000pt" height="120.000000pt" viewBox="0 0 120.000000 120.000000"
 preserveAspectRatio="xMidYMid meet">
<metadata>
Created by potrace 1.14, written by Peter Selinger 2001-2017
</metadata>
<g transform="translate(0.000000,120.000000) scale(0.100000,-0.100000)"
fill="#000000" stroke="none">
<path d="M293 1092 c-15 -9 -218 -350 -251 -421 -39 -84 -31 -109 106 -341 64
-110 125 -209 135 -220 14 -17 29 -20 105 -20 73 0 92 3 105 18 10 10 17 25
17 33 0 8 -25 58 -56 110 -31 51 -85 149 -120 216 l-64 122 21 48 c24 58 87
174 163 302 31 52 56 103 56 112 0 34 -39 49 -125 49 -44 0 -85 -4 -92 -8z"/>
<path d="M717 1082 c-10 -10 -17 -26 -17 -34 0 -9 28 -63 61 -120 34 -57 88
-154 119 -217 l58 -113 -21 -47 c-27 -61 -87 -174 -159 -294 -32 -55 -58 -107
-58 -116 0 -38 32 -51 121 -51 46 0 89 4 96 8 6 4 68 104 138 221 140 239 151
268 117 342 -27 61 -241 422 -255 431 -7 4 -51 8 -98 8 -71 0 -89 -3 -102 -18z"/>
<path d="M576 751 c-4 -5 -7 -28 -8 -50 -1 -23 -4 -40 -7 -39 -76 40 -80 41
-96 28 -25 -21 -18 -49 20 -71 19 -12 35 -22 35 -24 0 -2 -16 -12 -35 -24 -38
-22 -45 -50 -20 -71 13 -11 22 -10 53 6 20 10 40 20 44 22 4 2 8 -18 10 -45 3
-42 6 -48 27 -51 33 -5 45 12 43 58 l-3 40 45 -22 c37 -18 47 -19 60 -8 26 21
19 49 -19 71 -19 12 -35 22 -35 24 0 2 16 12 35 24 36 21 45 47 23 69 -17 17
-39 15 -68 -8 -35 -27 -40 -25 -40 14 0 19 -3 41 -6 50 -7 17 -49 22 -58 7z"/>
</g>
</svg>
